<svg width="137" height="105" viewBox="0 0 137 105" fill="none" xmlns="http://www.w3.org/2000/svg">
<path d="M44.1754 104.728C35.8234 104.728 28.3834 102.664 21.8554 98.536C15.3274 94.408 10.1914 88.456 6.44738 80.68C2.79938 72.808 0.975375 63.448 0.975375 52.6C0.975375 41.752 2.79938 32.44 6.44738 24.664C10.1914 16.792 15.3274 10.792 21.8554 6.664C28.3834 2.536 35.8234 0.471998 44.1754 0.471998C52.5274 0.471998 59.9674 2.536 66.4954 6.664C73.0234 10.792 78.1114 16.792 81.7594 24.664C85.5034 32.44 87.3754 41.752 87.3754 52.6C87.3754 63.448 85.5034 72.808 81.7594 80.68C78.1114 88.456 73.0234 94.408 66.4954 98.536C59.9674 102.664 52.5274 104.728 44.1754 104.728ZM44.1754 85C50.3194 85 55.1194 82.36 58.5754 77.08C62.1274 71.8 63.9034 63.64 63.9034 52.6C63.9034 41.56 62.1274 33.4 58.5754 28.12C55.1194 22.84 50.3194 20.2 44.1754 20.2C38.1274 20.2 33.3274 22.84 29.7754 28.12C26.3194 33.4 24.5914 41.56 24.5914 52.6C24.5914 63.64 26.3194 71.8 29.7754 77.08C33.3274 82.36 38.1274 85 44.1754 85ZM136.746 2.19999V103H113.418V20.92H93.258V2.19999H136.746Z" fill="#1A1A1A" fill-opacity="0.1"/>
</svg>
