<svg width="173" height="105" viewBox="0 0 173 105" fill="none" xmlns="http://www.w3.org/2000/svg">
<path d="M43.9019 104.728C35.5499 104.728 28.1099 102.664 21.5819 98.536C15.0539 94.408 9.91794 88.456 6.17394 80.68C2.52594 72.808 0.701938 63.448 0.701938 52.6C0.701938 41.752 2.52594 32.44 6.17394 24.664C9.91794 16.792 15.0539 10.792 21.5819 6.664C28.1099 2.536 35.5499 0.471998 43.9019 0.471998C52.2539 0.471998 59.6939 2.536 66.2219 6.664C72.7499 10.792 77.8379 16.792 81.4859 24.664C85.2299 32.44 87.1019 41.752 87.1019 52.6C87.1019 63.448 85.2299 72.808 81.4859 80.68C77.8379 88.456 72.7499 94.408 66.2219 98.536C59.6939 102.664 52.2539 104.728 43.9019 104.728ZM43.9019 85C50.0459 85 54.8459 82.36 58.3019 77.08C61.8539 71.8 63.6299 63.64 63.6299 52.6C63.6299 41.56 61.8539 33.4 58.3019 28.12C54.8459 22.84 50.0459 20.2 43.9019 20.2C37.8539 20.2 33.0539 22.84 29.5019 28.12C26.0459 33.4 24.3179 41.56 24.3179 52.6C24.3179 63.64 26.0459 71.8 29.5019 77.08C33.0539 82.36 37.8539 85 43.9019 85ZM172.905 83.992V103H96.7286V87.88L135.609 51.16C139.737 47.224 142.521 43.864 143.961 41.08C145.401 38.2 146.121 35.368 146.121 32.584C146.121 28.552 144.729 25.48 141.945 23.368C139.257 21.16 135.273 20.056 129.993 20.056C125.577 20.056 121.593 20.92 118.041 22.648C114.489 24.28 111.513 26.776 109.113 30.136L92.1206 19.192C96.0566 13.336 101.481 8.776 108.393 5.51199C115.305 2.152 123.225 0.471998 132.153 0.471998C139.641 0.471998 146.169 1.72 151.737 4.21599C157.401 6.616 161.769 10.072 164.841 14.584C168.009 19 169.593 24.232 169.593 30.28C169.593 35.752 168.441 40.888 166.137 45.688C163.833 50.488 159.369 55.96 152.745 62.104L129.561 83.992H172.905Z" fill="#1A1A1A" fill-opacity="0.1"/>
</svg>
