<svg width="172" height="105" viewBox="0 0 172 105" fill="none" xmlns="http://www.w3.org/2000/svg">
<path d="M44.0426 104.728C35.6906 104.728 28.2506 102.664 21.7226 98.536C15.1946 94.408 10.0586 88.456 6.31456 80.68C2.66656 72.808 0.842563 63.448 0.842563 52.6C0.842563 41.752 2.66656 32.44 6.31456 24.664C10.0586 16.792 15.1946 10.792 21.7226 6.664C28.2506 2.536 35.6906 0.471998 44.0426 0.471998C52.3946 0.471998 59.8346 2.536 66.3626 6.664C72.8906 10.792 77.9786 16.792 81.6266 24.664C85.3706 32.44 87.2426 41.752 87.2426 52.6C87.2426 63.448 85.3706 72.808 81.6266 80.68C77.9786 88.456 72.8906 94.408 66.3626 98.536C59.8346 102.664 52.3946 104.728 44.0426 104.728ZM44.0426 85C50.1866 85 54.9866 82.36 58.4426 77.08C61.9946 71.8 63.7706 63.64 63.7706 52.6C63.7706 41.56 61.9946 33.4 58.4426 28.12C54.9866 22.84 50.1866 20.2 44.0426 20.2C37.9946 20.2 33.1946 22.84 29.6426 28.12C26.1866 33.4 24.4586 41.56 24.4586 52.6C24.4586 63.64 26.1866 71.8 29.6426 77.08C33.1946 82.36 37.9946 85 44.0426 85ZM144.259 43.24C153.091 44.68 159.859 47.992 164.563 53.176C169.267 58.264 171.619 64.6 171.619 72.184C171.619 78.04 170.083 83.464 167.011 88.456C163.939 93.352 159.235 97.288 152.899 100.264C146.659 103.24 138.979 104.728 129.859 104.728C122.755 104.728 115.747 103.816 108.835 101.992C102.019 100.072 96.2107 97.384 91.4107 93.928L100.483 76.072C104.323 78.952 108.739 81.208 113.731 82.84C118.819 84.376 124.003 85.144 129.283 85.144C135.139 85.144 139.747 84.04 143.107 81.832C146.467 79.528 148.147 76.312 148.147 72.184C148.147 63.928 141.859 59.8 129.283 59.8H118.627V44.392L139.363 20.92H96.4507V2.19999H167.011V17.32L144.259 43.24Z" fill="#1A1A1A" fill-opacity="0.1"/>
</svg>
