<svg width="191" height="105" viewBox="0 0 191 105" fill="none" xmlns="http://www.w3.org/2000/svg">
<path d="M43.3082 104.728C34.9562 104.728 27.5162 102.664 20.9882 98.536C14.4602 94.408 9.32419 88.456 5.58019 80.68C1.93219 72.808 0.108188 63.448 0.108188 52.6C0.108188 41.752 1.93219 32.44 5.58019 24.664C9.32419 16.792 14.4602 10.792 20.9882 6.664C27.5162 2.536 34.9562 0.471998 43.3082 0.471998C51.6602 0.471998 59.1002 2.536 65.6282 6.664C72.1562 10.792 77.2442 16.792 80.8922 24.664C84.6362 32.44 86.5082 41.752 86.5082 52.6C86.5082 63.448 84.6362 72.808 80.8922 80.68C77.2442 88.456 72.1562 94.408 65.6282 98.536C59.1002 102.664 51.6602 104.728 43.3082 104.728ZM43.3082 85C49.4522 85 54.2522 82.36 57.7082 77.08C61.2602 71.8 63.0362 63.64 63.0362 52.6C63.0362 41.56 61.2602 33.4 57.7082 28.12C54.2522 22.84 49.4522 20.2 43.3082 20.2C37.2602 20.2 32.4602 22.84 28.9082 28.12C25.4522 33.4 23.7242 41.56 23.7242 52.6C23.7242 63.64 25.4522 71.8 28.9082 77.08C32.4602 82.36 37.2602 85 43.3082 85ZM190.147 81.832H173.731V103H150.979V81.832H96.6906V66.136L144.211 2.19999H168.691L124.627 62.824H151.699V43.96H173.731V62.824H190.147V81.832Z" fill="#1A1A1A" fill-opacity="0.1"/>
</svg>
